<?plantuml 1.2026.2?><svg xmlns="http://www.w3.org/2000/svg" xmlns:xlink="http://www.w3.org/1999/xlink" contentStyleType="text/css" data-diagram-type="DESCRIPTION" height="708px" preserveAspectRatio="none" style="width:510px;height:708px;background:#FFFFFF;" version="1.1" viewBox="0 0 510 708" width="510px" zoomAndPan="magnify"><title>clockwork repository architecture</title><defs/><g><g class="title" data-source-line="2"><text fill="#000000" font-family="sans-serif" font-size="14" font-weight="bold" lengthAdjust="spacing" textLength="233.7677" x="128.8809" y="24.9659">clockwork repository architecture</text></g><path d="M25.6749,257.2539 L96.3421,257.2539 A3.75,3.75 0 0 1 98.8421,259.7539 L105.8421,282.3218 L490.9716,282.3218 A2.5,2.5 0 0 1 493.4716,284.8218 L493.4716,594.1614 A2.5,2.5 0 0 1 490.9716,596.6614 L25.6749,596.6614 A2.5,2.5 0 0 1 23.1749,594.1614 L23.1749,259.7539 A2.5,2.5 0 0 1 25.6749,257.2539" fill="none" style="stroke:#000000;stroke-width:1.5;"/><line style="stroke:#000000;stroke-width:1.5;" x1="23.1749" x2="105.8421" y1="282.3218" y2="282.3218"/><text fill="#000000" font-family="sans-serif" font-size="14" font-weight="bold" lengthAdjust="spacing" textLength="69.6672" x="27.1749" y="274.2198">clockwork</text><!--entity CLI--><g class="entity" data-qualified-name="clockwork.CLI" data-source-line="5" id="ent0003"><rect fill="#F1F1F1" height="68.1358" rx="2.5" ry="2.5" style="stroke:#181818;stroke-width:0.5;" width="201.4894" x="75.3895" y="297.2539"/><rect fill="#F1F1F1" height="10" style="stroke:#181818;stroke-width:0.5;" width="15" x="256.8788" y="302.2539"/><rect fill="#F1F1F1" height="2" style="stroke:#181818;stroke-width:0.5;" width="4" x="254.8788" y="304.2539"/><rect fill="#F1F1F1" height="2" style="stroke:#181818;stroke-width:0.5;" width="4" x="254.8788" y="308.2539"/><text fill="#000000" font-family="sans-serif" font-size="14" lengthAdjust="spacing" textLength="33.4459" x="90.3895" y="332.2198">cli.py</text><text fill="#000000" font-family="sans-serif" font-size="14" lengthAdjust="spacing" textLength="161.4894" x="90.3895" y="351.2877">render/install entrypoint</text></g><!--entity MANIFEST--><g class="entity" data-qualified-name="clockwork.MANIFEST" data-source-line="6" id="ent0004"><rect fill="#F1F1F1" height="68.1358" rx="2.5" ry="2.5" style="stroke:#181818;stroke-width:0.5;" width="211.5413" x="266.9303" y="405.3897"/><rect fill="#F1F1F1" height="10" style="stroke:#181818;stroke-width:0.5;" width="15" x="458.4716" y="410.3897"/><rect fill="#F1F1F1" height="2" style="stroke:#181818;stroke-width:0.5;" width="4" x="456.4716" y="412.3897"/><rect fill="#F1F1F1" height="2" style="stroke:#181818;stroke-width:0.5;" width="4" x="456.4716" y="416.3897"/><text fill="#000000" font-family="sans-serif" font-size="14" lengthAdjust="spacing" textLength="77.1817" x="281.9303" y="440.3557">manifest.py</text><text fill="#000000" font-family="sans-serif" font-size="14" lengthAdjust="spacing" textLength="171.5413" x="281.9303" y="459.4236">TOML loading + validation</text></g><!--entity MODEL--><g class="entity" data-qualified-name="clockwork.MODEL" data-source-line="7" id="ent0005"><rect fill="#F1F1F1" height="68.1358" rx="2.5" ry="2.5" style="stroke:#181818;stroke-width:0.5;" width="183.7375" x="153.5526" y="513.5256"/><rect fill="#F1F1F1" height="10" style="stroke:#181818;stroke-width:0.5;" width="15" x="317.29" y="518.5256"/><rect fill="#F1F1F1" height="2" style="stroke:#181818;stroke-width:0.5;" width="4" x="315.29" y="520.5256"/><rect fill="#F1F1F1" height="2" style="stroke:#181818;stroke-width:0.5;" width="4" x="315.29" y="524.5256"/><text fill="#000000" font-family="sans-serif" font-size="14" lengthAdjust="spacing" textLength="61.1798" x="168.5526" y="548.4915">model.py</text><text fill="#000000" font-family="sans-serif" font-size="14" lengthAdjust="spacing" textLength="143.7375" x="168.5526" y="567.5594">scheduler dataclasses</text></g><!--entity RENDER--><g class="entity" data-qualified-name="clockwork.RENDER" data-source-line="8" id="ent0006"><rect fill="#F1F1F1" height="68.1358" rx="2.5" ry="2.5" style="stroke:#181818;stroke-width:0.5;" width="208.7554" x="38.1749" y="405.3897"/><rect fill="#F1F1F1" height="10" style="stroke:#181818;stroke-width:0.5;" width="15" x="226.9303" y="410.3897"/><rect fill="#F1F1F1" height="2" style="stroke:#181818;stroke-width:0.5;" width="4" x="224.9303" y="412.3897"/><rect fill="#F1F1F1" height="2" style="stroke:#181818;stroke-width:0.5;" width="4" x="224.9303" y="416.3897"/><text fill="#000000" font-family="sans-serif" font-size="14" lengthAdjust="spacing" textLength="64.1198" x="53.1749" y="440.3557">render.py</text><text fill="#000000" font-family="sans-serif" font-size="14" lengthAdjust="spacing" textLength="168.7554" x="53.1749" y="459.4236">systemd + cron renderers</text></g><!--entity EXAMPLES--><g class="entity" data-qualified-name="EXAMPLES" data-source-line="11" id="ent0007"><path d="M186.7403,52.0679 L227.7403,52.0679 A3.75,3.75 0 0 1 230.2403,54.5679 L237.2403,73.0679 L280.018,73.0679 A2.5,2.5 0 0 1 282.518,75.5679 L282.518,106.6358 A2.5,2.5 0 0 1 280.018,109.1358 L186.7403,109.1358 A2.5,2.5 0 0 1 184.2403,106.6358 L184.2403,54.5679 A2.5,2.5 0 0 1 186.7403,52.0679" fill="#F1F1F1" style="stroke:#181818;stroke-width:0.5;"/><line style="stroke:#181818;stroke-width:0.5;" x1="184.2403" x2="237.2403" y1="73.0679" y2="73.0679"/><text fill="#000000" font-family="sans-serif" font-size="14" lengthAdjust="spacing" textLength="68.2777" x="194.2403" y="95.0339">examples/</text></g><!--entity MANIFESTS--><g class="entity" data-qualified-name="MANIFESTS" data-source-line="12" id="ent0008"><path d="M322.3861,166.6609 C322.3861,156.6609 407.9578,156.6609 407.9578,156.6609 C407.9578,156.6609 493.5295,156.6609 493.5295,166.6609 L493.5295,194.7288 C493.5295,204.7288 407.9578,204.7288 407.9578,204.7288 C407.9578,204.7288 322.3861,204.7288 322.3861,194.7288 L322.3861,166.6609" fill="#F1F1F1" style="stroke:#181818;stroke-width:0.5;"/><path d="M322.3861,166.6609 C322.3861,176.6609 407.9578,176.6609 407.9578,176.6609 C407.9578,176.6609 493.5295,176.6609 493.5295,166.6609" fill="none" style="stroke:#181818;stroke-width:0.5;"/><text fill="#000000" font-family="sans-serif" font-size="14" lengthAdjust="spacing" textLength="151.1434" x="332.3861" y="195.6268">downstream manifests</text></g><!--entity SYSTEMD--><g class="entity" data-qualified-name="SYSTEMD" data-source-line="13" id="ent0009"><rect fill="#F1F1F1" height="61.1358" rx="2.5" ry="2.5" style="stroke:#181818;stroke-width:0.5;" width="156.7275" x="12" y="641.6614"/><polygon fill="#F1F1F1" points="151.7275,646.6614,151.7275,660.6614,163.7275,660.6614,163.7275,652.6614,157.7275,646.6614,151.7275,646.6614" style="stroke:#181818;stroke-width:0.5;"/><line style="stroke:#181818;stroke-width:0.5;" x1="157.7275" x2="157.7275" y1="646.6614" y2="652.6614"/><line style="stroke:#181818;stroke-width:0.5;" x1="163.7275" x2="157.7275" y1="652.6614" y2="652.6614"/><text fill="#000000" font-family="sans-serif" font-size="14" lengthAdjust="spacing" textLength="91.5177" x="22" y="669.6274">systemd units</text><text fill="#000000" font-family="sans-serif" font-size="14" lengthAdjust="spacing" textLength="126.7275" x="22" y="688.6953">service + timer files</text></g><!--entity CRON--><g class="entity" data-qualified-name="CRON" data-source-line="14" id="ent0010"><rect fill="#F1F1F1" height="42.0679" rx="2.5" ry="2.5" style="stroke:#181818;stroke-width:0.5;" width="119.1097" x="188.7275" y="641.6614"/><polygon fill="#F1F1F1" points="290.8372,646.6614,290.8372,660.6614,302.8372,660.6614,302.8372,652.6614,296.8372,646.6614,290.8372,646.6614" style="stroke:#181818;stroke-width:0.5;"/><line style="stroke:#181818;stroke-width:0.5;" x1="296.8372" x2="296.8372" y1="646.6614" y2="652.6614"/><line style="stroke:#181818;stroke-width:0.5;" x1="302.8372" x2="296.8372" y1="652.6614" y2="652.6614"/><text fill="#000000" font-family="sans-serif" font-size="14" lengthAdjust="spacing" textLength="89.1097" x="198.7275" y="669.6274">cron snippets</text></g><g class="entity" data-qualified-name="GMN19" data-source-line="26" id="ent0020"><path d="M131.613,149.1358 L131.613,212.2539 L302.3861,212.2539 L302.3861,159.1358 L292.3861,149.1358 L131.613,149.1358" fill="#FEFFDD" style="stroke:#181818;stroke-width:0.5;"/><path d="M292.3861,149.1358 L292.3861,159.1358 L302.3861,159.1358 L292.3861,149.1358" fill="#FEFFDD" style="stroke:#181818;stroke-width:1;"/><text fill="#000000" font-family="sans-serif" font-size="13" lengthAdjust="spacing" textLength="149.7731" x="137.613" y="168.0328">Examples mirror current</text><text fill="#000000" font-family="sans-serif" font-size="13" lengthAdjust="spacing" textLength="116.1291" x="137.613" y="185.7389">portfolio scheduler</text><text fill="#000000" font-family="sans-serif" font-size="13" lengthAdjust="spacing" textLength="139.6981" x="137.613" y="203.4449">patterns for migration.</text></g><line style="stroke:#181818;stroke-width:1;" x1="209.7157" x2="209.7157" y1="365.3897" y2="375.3897"/><line style="stroke:#181818;stroke-width:1;" x1="209.7157" x2="337.444" y1="375.3897" y2="375.3897"/><line style="stroke:#181818;stroke-width:1;" x1="337.444" x2="337.444" y1="375.3897" y2="405.3897"/><polygon fill="#181818" points="337.444,405.3897,341.444,396.3897,337.444,400.3897,333.444,396.3897,337.444,405.3897" style="stroke:#181818;stroke-width:1;"/><line style="stroke:#181818;stroke-width:1;" x1="372.7009" x2="372.7009" y1="473.5256" y2="503.5256"/><line style="stroke:#181818;stroke-width:1;" x1="372.7009" x2="276.0442" y1="503.5256" y2="503.5256"/><line style="stroke:#181818;stroke-width:1;" x1="276.0442" x2="276.0442" y1="503.5256" y2="513.5256"/><polygon fill="#181818" points="276.0442,513.5256,280.0442,504.5256,276.0442,508.5256,272.0442,504.5256,276.0442,513.5256" style="stroke:#181818;stroke-width:1;"/><line style="stroke:#181818;stroke-width:1;" x1="142.5526" x2="142.5526" y1="365.3897" y2="405.3897"/><polygon fill="#181818" points="142.5526,405.3897,146.5526,396.3897,142.5526,400.3897,138.5526,396.3897,142.5526,405.3897" style="stroke:#181818;stroke-width:1;"/><line style="stroke:#181818;stroke-width:1;" x1="194.7414" x2="194.7414" y1="473.5256" y2="483.5256"/><line style="stroke:#181818;stroke-width:1;" x1="194.7414" x2="214.7984" y1="483.5256" y2="483.5256"/><line style="stroke:#181818;stroke-width:1;" x1="214.7984" x2="214.7984" y1="483.5256" y2="513.5256"/><polygon fill="#181818" points="214.7984,513.5256,218.7984,504.5256,214.7984,508.5256,210.7984,504.5256,214.7984,513.5256" style="stroke:#181818;stroke-width:1;"/><line style="stroke:#181818;stroke-width:1;" x1="249.7588" x2="249.7588" y1="109.1358" y2="119.1358"/><line style="stroke:#181818;stroke-width:1;" x1="249.7588" x2="407.9578" y1="119.1358" y2="119.1358"/><line style="stroke:#181818;stroke-width:1;" x1="407.9578" x2="407.9578" y1="119.1358" y2="156.6609"/><polygon fill="#181818" points="407.9578,156.6609,411.9578,147.6609,407.9578,151.6609,403.9578,147.6609,407.9578,156.6609" style="stroke:#181818;stroke-width:1;"/><line style="stroke:#181818;stroke-width:1;" x1="407.9578" x2="407.9578" y1="204.7288" y2="405.3897"/><polygon fill="#181818" points="407.9578,405.3897,411.9578,396.3897,407.9578,400.3897,403.9578,396.3897,407.9578,405.3897" style="stroke:#181818;stroke-width:1;"/><line style="stroke:#181818;stroke-width:1;" x1="90.3637" x2="90.3637" y1="473.5256" y2="641.6614"/><polygon fill="#181818" points="90.3637,641.6614,94.3637,632.6614,90.3637,636.6614,86.3637,632.6614,90.3637,641.6614" style="stroke:#181818;stroke-width:1;"/><line style="stroke:#181818;stroke-width:1;" x1="142.5526" x2="142.5526" y1="473.5256" y2="611.6614"/><line style="stroke:#181818;stroke-width:1;" x1="142.5526" x2="248.2823" y1="611.6614" y2="611.6614"/><line style="stroke:#181818;stroke-width:1;" x1="248.2823" x2="248.2823" y1="611.6614" y2="641.6614"/><polygon fill="#181818" points="248.2823,641.6614,252.2823,632.6614,248.2823,636.6614,244.2823,632.6614,248.2823,641.6614" style="stroke:#181818;stroke-width:1;"/><line style="stroke:#181818;stroke-width:1;stroke-dasharray:7,7;" x1="216.9995" x2="216.9995" y1="109.1358" y2="149.1358"/><?plantuml-src NLBDRjim3BxhARXSXxPlCA1eFA10VeOuXmtOHPDfXuWa2XJTpXZsxbFiE8rtia7ou_T3VKfYks31su5x1VHdewGUmNbsvtUMCmWcpgGi0rXn9r9qsWiQawmxsmvXTPjTmHy3u3WaZXZrqg77DFoCWh51UQAOrNeFfIT3Oegw0flXPVEwX0KRgSMi8_Qutsx0isqeTl0PtgodnYfn7B7Rvzthrwe-_hU06_GZEhiJDhr7WGAopjkSCK_8_RhQB66Jp0atPCNG548d767ge4pGGxLRLmVprvYMVQd32d_Ra3pcfx5VVN_UVjjKjRbm_hAvPDJmUp4lQ0FCxlB2G6siABNM5HqpUHz9Sz62yaOEYnQbKDXQybSFzO_wM6tNTz1HROwK4bu9NWxxdJ4bOtXu-FAHr_mpLSSivfchlUbprvzjBHRLjqtB-ZrybdbNcbH5LWIXxgJ0xKTirJLD22J20gwNSW0rYKLBuiHmEsjvXQeeCKDR1WDrChwDHrCE1fVrvXy0?></g></svg>
